<svg width="28" height="28" viewBox="0 0 28 28" fill="none" xmlns="http://www.w3.org/2000/svg"><path d="M14 28C21.732 28 28 21.732 28 14C28 6.26801 21.732 0 14 0C6.26801 0 0 6.26801 0 14C0 21.732 6.26801 28 14 28Z" fill="#BFDAFA"></path><path d="M14 5.09091V11.6985L19.7273 14.1485L14 5.09091Z" fill="#2B3439"></path><path d="M14 5.09091L8.27273 14.1485L14 11.6985V5.09091Z" fill="#677889"></path><path d="M14 11.677L8.27273 14.127L14 17.3936V11.677Z" fill="#2B3439"></path><path d="M14 11.677V17.3936L19.7273 14.127L14 11.677Z" fill="#060506"></path><path d="M14 22.9091V18.4545L8.27273 15.1879L14 22.9091Z" fill="#677889"></path><path d="M14 18.4545V22.9091L19.7273 15.1879L14 18.4545Z" fill="#2B3439"></path></svg>