<svg xmlns="http://www.w3.org/2000/svg" width="250" height="250" viewBox="0 0 250 250">
  <defs>
    <style>
      .cls-1 {
        fill: #c5c5c5;
        fill-rule: evenodd;
      }
    </style>
  </defs>
  <path id="invite_icon" class="cls-1" d="M485.137,689.954v-0.011H276.813c-11.49,0-20.833-10.194-20.833-22.755V537.676a8.853,8.853,0,0,1,.952-4.026,8.174,8.174,0,0,1,2.64-3.041,7.443,7.443,0,0,1,3.679-1.306,7.351,7.351,0,0,1,3.812.748l13.916,6.839V459.366a19.491,19.491,0,0,1,19.53-19.4H464.564a19.491,19.491,0,0,1,19.531,19.4v76.007l10.812-5.312a7.368,7.368,0,0,1,3.8-.723,7.462,7.462,0,0,1,3.66,1.306,8.182,8.182,0,0,1,2.635,3.02,8.877,8.877,0,0,1,.97,4V667.177C505.969,679.749,496.626,689.954,485.137,689.954ZM468.471,459.366c0-1.25-1.657-2.657-3.907-2.657H300.509c-2.239,0-3.906,1.407-3.906,2.657V543.7c0,0.282-.05.557-0.077,0.836l84.448,41.5,87.5-42.983V459.366Zm21.864,91.385L384.2,602.834a7.312,7.312,0,0,1-6.52,0L271.6,550.728V667.2c0,3.316,2.334,6.018,5.208,6.018H485.126c2.875,0,5.209-2.7,5.209-6.018V550.751ZM324.971,532.387a8.807,8.807,0,0,1,0-11.8,7.566,7.566,0,0,1,5.485-2.475H447.639a7.38,7.38,0,0,1,3.007.619,7.8,7.8,0,0,1,2.555,1.811,8.417,8.417,0,0,1,1.709,2.725,8.924,8.924,0,0,1,0,6.439,8.387,8.387,0,0,1-1.709,2.723,7.792,7.792,0,0,1-2.555,1.812,7.346,7.346,0,0,1-3.007.618H330.456A7.555,7.555,0,0,1,324.971,532.387Zm122.667-31.019H394.9a7.556,7.556,0,0,1-5.523-2.452,8.8,8.8,0,0,1,0-11.842,7.553,7.553,0,0,1,5.523-2.453h52.737a7.554,7.554,0,0,1,5.524,2.453,8.805,8.805,0,0,1,0,11.842A7.557,7.557,0,0,1,447.638,501.368Z" transform="translate(-255.969 -439.969)"/>
</svg>
