<svg width="80" height="17" viewBox="0 0 80 17" fill="none" xmlns="http://www.w3.org/2000/svg">
    <path d="M31.4514 2.55906L19.3829 14.4408L11.8857 6.94618L2.01143 17L0 14.8064L11.8857 2.92466L19.3829 10.4193L29.44 0.365504L31.4514 2.55906Z" fill="url(#paint0_linear_527_330)"/>
    <path d="M23.7714 0H32V8.22585L23.7714 0Z" fill="url(#paint1_linear_527_330)"/>
    <path d="M40 2H42.592V11.088H48.208V13.2H40V2Z" fill="url(#paint2_linear_527_330)"/>
    <path d="M53.5138 13.328C52.6071 13.328 51.7911 13.1413 51.0658 12.768C50.3511 12.384 49.7911 11.856 49.3857 11.184C48.9804 10.512 48.7778 9.74933 48.7778 8.896C48.7778 8.04267 48.9804 7.28 49.3857 6.608C49.7911 5.936 50.3511 5.41333 51.0658 5.04C51.7911 4.656 52.6071 4.464 53.5138 4.464C54.4204 4.464 55.2311 4.656 55.9458 5.04C56.6604 5.41333 57.2204 5.936 57.6258 6.608C58.0311 7.28 58.2337 8.04267 58.2337 8.896C58.2337 9.74933 58.0311 10.512 57.6258 11.184C57.2204 11.856 56.6604 12.384 55.9458 12.768C55.2311 13.1413 54.4204 13.328 53.5138 13.328ZM53.5138 11.28C54.1538 11.28 54.6764 11.0667 55.0817 10.64C55.4978 10.2027 55.7058 9.62133 55.7058 8.896C55.7058 8.17067 55.4978 7.59467 55.0817 7.168C54.6764 6.73067 54.1538 6.512 53.5138 6.512C52.8737 6.512 52.3458 6.73067 51.9298 7.168C51.5138 7.59467 51.3057 8.17067 51.3057 8.896C51.3057 9.62133 51.5138 10.2027 51.9298 10.64C52.3458 11.0667 52.8737 11.28 53.5138 11.28Z" fill="url(#paint3_linear_527_330)"/>
    <path d="M65.1341 4.464C66.2008 4.464 67.0595 4.784 67.7101 5.424C68.3715 6.064 68.7021 7.01333 68.7021 8.272V13.2H66.2061V8.656C66.2061 7.97334 66.0568 7.46667 65.7581 7.136C65.4595 6.79467 65.0275 6.624 64.4621 6.624C63.8328 6.624 63.3315 6.82133 62.9581 7.216C62.5848 7.6 62.3981 8.176 62.3981 8.944V13.2H59.9021V4.592H62.2861V5.6C62.6168 5.23734 63.0275 4.96 63.5181 4.768C64.0088 4.56534 64.5475 4.464 65.1341 4.464Z" fill="url(#paint4_linear_527_330)"/>
    <path d="M79.9384 4.592V11.76C79.9384 13.3387 79.5277 14.512 78.7064 15.28C77.885 16.048 76.685 16.432 75.1064 16.432C74.2744 16.432 73.485 16.3307 72.7384 16.128C71.9917 15.9253 71.373 15.632 70.8824 15.248L71.8744 13.456C72.237 13.7547 72.6957 13.9893 73.2504 14.16C73.805 14.3413 74.3597 14.432 74.9144 14.432C75.7784 14.432 76.413 14.2347 76.8184 13.84C77.2344 13.456 77.4424 12.8693 77.4424 12.08V11.712C76.7917 12.4267 75.885 12.784 74.7224 12.784C73.933 12.784 73.2077 12.6133 72.5464 12.272C71.8957 11.92 71.3784 11.4293 70.9944 10.8C70.6104 10.1707 70.4184 9.44533 70.4184 8.624C70.4184 7.80267 70.6104 7.07734 70.9944 6.448C71.3784 5.81867 71.8957 5.33333 72.5464 4.992C73.2077 4.64 73.933 4.464 74.7224 4.464C75.9704 4.464 76.9197 4.87467 77.5704 5.696V4.592H79.9384ZM75.2184 10.736C75.8797 10.736 76.4184 10.544 76.8344 10.16C77.261 9.76533 77.4744 9.25333 77.4744 8.624C77.4744 7.99467 77.261 7.488 76.8344 7.104C76.4184 6.70933 75.8797 6.512 75.2184 6.512C74.557 6.512 74.013 6.70933 73.5864 7.104C73.1597 7.488 72.9464 7.99467 72.9464 8.624C72.9464 9.25333 73.1597 9.76533 73.5864 10.16C74.013 10.544 74.557 10.736 75.2184 10.736Z" fill="url(#paint5_linear_527_330)"/>
    <defs>
        <linearGradient id="paint0_linear_527_330" x1="0" y1="0" x2="14.0868" y2="26.5164" gradientUnits="userSpaceOnUse">
            <stop stop-color="#DC706A"/>
            <stop offset="1" stop-color="#DD8751"/>
        </linearGradient>
        <linearGradient id="paint1_linear_527_330" x1="0" y1="0" x2="14.0868" y2="26.5164" gradientUnits="userSpaceOnUse">
            <stop stop-color="#DC706A"/>
            <stop offset="1" stop-color="#DD8751"/>
        </linearGradient>
        <linearGradient id="paint2_linear_527_330" x1="40" y1="2" x2="49.2255" y2="27.5303" gradientUnits="userSpaceOnUse">
            <stop stop-color="#DC706A"/>
            <stop offset="1" stop-color="#DD8751"/>
        </linearGradient>
        <linearGradient id="paint3_linear_527_330" x1="40" y1="2" x2="49.2255" y2="27.5303" gradientUnits="userSpaceOnUse">
            <stop stop-color="#DC706A"/>
            <stop offset="1" stop-color="#DD8751"/>
        </linearGradient>
        <linearGradient id="paint4_linear_527_330" x1="40" y1="2" x2="49.2255" y2="27.5303" gradientUnits="userSpaceOnUse">
            <stop stop-color="#DC706A"/>
            <stop offset="1" stop-color="#DD8751"/>
        </linearGradient>
        <linearGradient id="paint5_linear_527_330" x1="40" y1="2" x2="49.2255" y2="27.5303" gradientUnits="userSpaceOnUse">
            <stop stop-color="#DC706A"/>
            <stop offset="1" stop-color="#DD8751"/>
        </linearGradient>
    </defs>
</svg>
