<svg width="64" height="21" viewBox="0 0 64 21" fill="none" xmlns="http://www.w3.org/2000/svg">
<g clip-path="url(#clip0_3714_2629)">
<path d="M17.3561 10.6994L15.5629 19.6159C15.4775 19.7857 15.3922 19.9555 15.2214 19.9555H13.0013C12.7451 19.9555 12.5743 19.7008 12.6597 19.5309L14.4529 10.7844C14.5383 10.2749 14.6237 9.76535 14.6237 9.42568C14.6237 7.30272 13.3428 6.11387 10.7812 6.11387C7.53641 6.11387 5.40169 7.81223 4.71858 11.3788L3.01081 19.7857C2.92542 19.9555 2.84003 20.1254 2.66926 20.1254H0.363766C0.1076 20.1254 -0.0631764 19.8706 0.0222121 19.7008L3.0962 3.82108C3.18159 3.65124 3.26698 3.4814 3.43775 3.4814H5.57247C5.82863 3.4814 5.99941 3.73616 5.91402 3.906L5.74324 4.58534C5.74324 4.92501 6.0848 5.17977 6.34097 5.00993C7.79257 3.90599 9.58573 3.39648 11.5497 3.39648C15.3068 3.39648 17.5269 5.3496 17.5269 8.83125C17.5269 9.34076 17.4415 10.0201 17.3561 10.6994Z" fill="#003232"/>
<path d="M51.6826 5.09476L50.8287 6.79312C50.7433 7.04788 50.4871 7.04788 50.3163 6.96296C49.0355 6.1987 47.3277 5.85902 45.7907 5.85902C42.9729 5.85902 41.6067 6.87804 41.6067 8.32165C41.6067 11.6335 50.7433 9.34067 50.7433 14.7754C50.7433 18.1722 47.6693 20.1253 43.1437 20.1253C40.4967 20.1253 38.0204 19.361 36.6542 18.4269C36.4834 18.342 36.4834 18.0872 36.5688 17.9174L37.5934 16.219C37.6788 16.0492 37.935 15.9643 38.1058 16.0492C39.3866 16.9833 41.4359 17.4928 43.4853 17.4928C46.3885 17.4928 47.8401 16.5587 47.8401 15.0302C47.8401 11.8033 38.7035 14.0961 38.7035 8.57641C38.7035 5.34952 41.6921 3.22656 46.1323 3.22656C48.1816 3.22656 50.231 3.73607 51.5972 4.58525C51.7679 4.75509 51.7679 4.92492 51.6826 5.09476Z" fill="#003232"/>
<path d="M63.9778 3.90624L63.6362 5.6046C63.5508 5.77444 63.4654 5.94427 63.2947 5.94427H59.196C59.0252 5.94427 58.8544 6.11411 58.8544 6.28394L57.1467 14.6908C57.0613 15.0305 57.0613 15.2853 57.0613 15.54C57.0613 16.8138 57.7444 17.5781 59.196 17.5781C59.8791 17.5781 60.5622 17.4082 61.1599 17.0686C61.4161 16.8987 61.6723 17.0686 61.6723 17.3233L62.0992 18.8518C62.1846 19.0217 62.0992 19.1915 61.9284 19.2764C60.8184 19.9558 59.5376 20.2105 58.3421 20.2105C55.7805 20.2105 53.9873 18.682 53.9873 16.1344C53.9873 15.7099 54.0727 15.2853 54.1581 14.8607L57.0613 0.339674C57.1467 0.169838 57.2321 0 57.4028 0H59.6229C59.8791 0 60.0499 0.254754 59.9645 0.424591L59.3668 3.14197C59.2814 3.39673 59.5376 3.56656 59.7083 3.56656H63.5508C63.8924 3.48164 64.0632 3.65148 63.9778 3.90624Z" fill="#003232"/>
<path d="M29.0544 3.3125C23.6749 3.3125 19.7471 7.47349 19.7471 12.9083C19.7471 17.2391 22.7357 20.0414 27.6882 20.0414C30.1645 20.0414 32.47 19.2771 34.0923 17.9184C34.2631 17.7486 34.2631 17.5788 34.1777 17.4089L33.2385 15.8804C33.0677 15.6256 32.8115 15.6256 32.6407 15.7955C31.4453 16.8145 29.7375 17.4089 27.859 17.4089C24.8704 17.4089 23.248 16.2201 22.8211 14.182C22.7357 13.9273 22.9064 13.7574 23.1626 13.7574L36.1417 11.3797C36.3125 11.2948 36.4832 11.2099 36.4832 11.0401C36.4832 10.8702 36.4832 10.7004 36.4832 10.5305C36.3978 5.86005 33.4092 3.3125 29.0544 3.3125ZM33.3238 9.76628L23.248 11.6345C22.9918 11.7194 22.7357 11.4646 22.8211 11.2099C23.4188 7.89808 25.7243 5.86005 28.969 5.86005C31.5307 5.86005 33.3239 7.13382 33.6654 9.42661C33.6654 9.51153 33.4946 9.68136 33.3238 9.76628Z" fill="#003232"/>
</g>
<defs>
<clipPath id="clip0_3714_2629">
<rect width="64" height="20.2105" fill="white"/>
</clipPath>
</defs>
</svg>
