<svg width="66" height="66" viewBox="0 0 66 66" fill="none" xmlns="http://www.w3.org/2000/svg">
    <path d="M33 66C51.2254 66 66 51.2254 66 33C66 14.7746 51.2254 0 33 0C14.7746 0 0 14.7746 0 33C0 51.2254 14.7746 66 33 66Z" fill="black"/>
    <path d="M49.5 27.6375C49.5 28.6687 49.2938 29.9062 49.0875 31.35L45.7875 48.0562C45.7875 48.4687 45.375 48.675 45.1688 48.675H41.0438C40.6313 48.675 40.2188 48.2625 40.425 47.85L43.725 31.35C43.9313 30.3187 43.9313 29.4937 43.9313 28.875C43.9313 24.75 41.6625 22.4812 36.7125 22.4812C30.7313 22.4812 26.6063 25.7812 25.3688 32.3812L22.275 48.2625C22.275 48.675 21.8625 48.8812 21.6563 48.8812H17.5313C17.1188 48.8812 16.7063 48.4687 16.9125 48.0562L22.6875 18.5625C22.6875 18.15 23.1 17.9437 23.3063 17.9437H27.225C27.6375 17.9437 28.05 18.3562 27.8438 18.7687L27.6375 20.0062C27.4313 20.625 28.2563 21.0375 28.6688 20.625C31.35 18.5625 34.65 17.7375 38.3625 17.7375C45.375 17.325 49.5 21.0375 49.5 27.6375Z" fill="white"/>
</svg>
