<svg width="86" height="17" viewBox="0 0 86 17" fill="none" xmlns="http://www.w3.org/2000/svg">
    <path d="M29.5277 16.5852L19.502 6.49587L11.9484 14.0974L0 2.07315L2.06007 0L11.9484 10.0893L19.502 2.48778L31.5878 14.512L29.5277 16.5852Z" fill="url(#paint0_linear_1369_215)"/>
    <path d="M32 8.70741V17H23.7597L32 8.70741Z" fill="url(#paint1_linear_1369_215)"/>
    <path d="M44.56 14.064C43.6747 14.064 42.816 13.9467 41.984 13.712C41.1627 13.4667 40.5013 13.152 40 12.768L40.88 10.816C41.36 11.168 41.9307 11.4507 42.592 11.664C43.2533 11.8773 43.9147 11.984 44.576 11.984C45.312 11.984 45.856 11.8773 46.208 11.664C46.56 11.44 46.736 11.1467 46.736 10.784C46.736 10.5173 46.6293 10.2987 46.416 10.128C46.2133 9.94666 45.9467 9.80267 45.616 9.696C45.296 9.58933 44.8587 9.472 44.304 9.344C43.4507 9.14134 42.752 8.93867 42.208 8.736C41.664 8.53333 41.1947 8.208 40.8 7.76C40.416 7.312 40.224 6.71467 40.224 5.968C40.224 5.31734 40.4 4.73067 40.752 4.208C41.104 3.67467 41.632 3.25333 42.336 2.944C43.0507 2.63467 43.92 2.48 44.944 2.48C45.6587 2.48 46.3573 2.56533 47.04 2.736C47.7227 2.90667 48.32 3.152 48.832 3.472L48.032 5.44C46.9973 4.85334 45.9627 4.56 44.928 4.56C44.2027 4.56 43.664 4.67733 43.312 4.912C42.9707 5.14667 42.8 5.456 42.8 5.84C42.8 6.224 42.9973 6.512 43.392 6.704C43.7973 6.88534 44.4107 7.06667 45.232 7.248C46.0853 7.45067 46.784 7.65333 47.328 7.856C47.872 8.05867 48.336 8.37867 48.72 8.816C49.1147 9.25334 49.312 9.84533 49.312 10.592C49.312 11.232 49.1307 11.8187 48.768 12.352C48.416 12.8747 47.8827 13.2907 47.168 13.6C46.4533 13.9093 45.584 14.064 44.56 14.064Z" fill="url(#paint2_linear_1369_215)"/>
    <path d="M56.1391 5.136C57.2058 5.136 58.0645 5.456 58.7151 6.096C59.3765 6.736 59.7071 7.68533 59.7071 8.944V13.872H57.2111V9.328C57.2111 8.64533 57.0618 8.13867 56.7631 7.808C56.4645 7.46667 56.0325 7.296 55.4671 7.296C54.8378 7.296 54.3365 7.49333 53.9631 7.888C53.5898 8.272 53.4031 8.848 53.4031 9.616V13.872H50.9071V2H53.4031V6.16C53.7338 5.82933 54.1338 5.57867 54.6031 5.408C55.0725 5.22667 55.5845 5.136 56.1391 5.136Z" fill="url(#paint3_linear_1369_215)"/>
    <path d="M66.1594 14C65.2527 14 64.4367 13.8133 63.7114 13.44C62.9967 13.056 62.4367 12.528 62.0314 11.856C61.626 11.184 61.4234 10.4213 61.4234 9.568C61.4234 8.71467 61.626 7.952 62.0314 7.28C62.4367 6.608 62.9967 6.08533 63.7114 5.712C64.4367 5.328 65.2527 5.136 66.1594 5.136C67.066 5.136 67.8767 5.328 68.5914 5.712C69.306 6.08533 69.866 6.608 70.2714 7.28C70.6767 7.952 70.8794 8.71467 70.8794 9.568C70.8794 10.4213 70.6767 11.184 70.2714 11.856C69.866 12.528 69.306 13.056 68.5914 13.44C67.8767 13.8133 67.066 14 66.1594 14ZM66.1594 11.952C66.7994 11.952 67.322 11.7387 67.7274 11.312C68.1434 10.8747 68.3514 10.2933 68.3514 9.568C68.3514 8.84267 68.1434 8.26667 67.7274 7.84C67.322 7.40267 66.7994 7.184 66.1594 7.184C65.5194 7.184 64.9914 7.40267 64.5754 7.84C64.1594 8.26667 63.9514 8.84267 63.9514 9.568C63.9514 10.2933 64.1594 10.8747 64.5754 11.312C64.9914 11.7387 65.5194 11.952 66.1594 11.952Z" fill="url(#paint4_linear_1369_215)"/>
    <path d="M74.9317 6.4C75.2304 5.984 75.6304 5.66933 76.1318 5.456C76.6438 5.24267 77.2304 5.136 77.8918 5.136V7.44C77.6144 7.41867 77.4277 7.408 77.3317 7.408C76.6171 7.408 76.0571 7.61067 75.6517 8.016C75.2464 8.41067 75.0437 9.008 75.0437 9.808V13.872H72.5478V5.264H74.9317V6.4Z" fill="url(#paint5_linear_1369_215)"/>
    <path d="M85.2248 13.456C84.9794 13.6373 84.6754 13.776 84.3128 13.872C83.9608 13.9573 83.5874 14 83.1927 14C82.1687 14 81.3741 13.7387 80.8088 13.216C80.2541 12.6933 79.9768 11.9253 79.9768 10.912V7.376H78.6488V5.456H79.9768V3.36H82.4727V5.456H84.6168V7.376H82.4727V10.88C82.4727 11.2427 82.5634 11.5253 82.7448 11.728C82.9368 11.92 83.2034 12.016 83.5448 12.016C83.9394 12.016 84.2754 11.9093 84.5527 11.696L85.2248 13.456Z" fill="url(#paint6_linear_1369_215)"/>
    <defs>
        <linearGradient id="paint0_linear_1369_215" x1="0" y1="0" x2="6.52254" y2="32.6989" gradientUnits="userSpaceOnUse">
            <stop stop-color="#98CF71"/>
            <stop offset="1" stop-color="#63C8A7"/>
        </linearGradient>
        <linearGradient id="paint1_linear_1369_215" x1="0" y1="0" x2="6.52254" y2="32.6989" gradientUnits="userSpaceOnUse">
            <stop stop-color="#98CF71"/>
            <stop offset="1" stop-color="#63C8A7"/>
        </linearGradient>
        <linearGradient id="paint2_linear_1369_215" x1="0" y1="0" x2="6.52254" y2="32.6989" gradientUnits="userSpaceOnUse">
            <stop stop-color="#98CF71"/>
            <stop offset="1" stop-color="#63C8A7"/>
        </linearGradient>
        <linearGradient id="paint3_linear_1369_215" x1="0" y1="0" x2="6.52254" y2="32.6989" gradientUnits="userSpaceOnUse">
            <stop stop-color="#98CF71"/>
            <stop offset="1" stop-color="#63C8A7"/>
        </linearGradient>
        <linearGradient id="paint4_linear_1369_215" x1="0" y1="0" x2="6.52254" y2="32.6989" gradientUnits="userSpaceOnUse">
            <stop stop-color="#98CF71"/>
            <stop offset="1" stop-color="#63C8A7"/>
        </linearGradient>
        <linearGradient id="paint5_linear_1369_215" x1="0" y1="0" x2="6.52254" y2="32.6989" gradientUnits="userSpaceOnUse">
            <stop stop-color="#98CF71"/>
            <stop offset="1" stop-color="#63C8A7"/>
        </linearGradient>
        <linearGradient id="paint6_linear_1369_215" x1="0" y1="0" x2="6.52254" y2="32.6989" gradientUnits="userSpaceOnUse">
            <stop stop-color="#98CF71"/>
            <stop offset="1" stop-color="#63C8A7"/>
        </linearGradient>
    </defs>
</svg>
