<svg width="20" height="20" viewBox="0 0 20 20" fill="none" xmlns="http://www.w3.org/2000/svg">
    <path d="M10 20C11.9778 20 13.9112 19.4135 15.5557 18.3147C17.2002 17.2159 18.4819 15.6541 19.2388 13.8268C19.9957 11.9996 20.1937 9.98891 19.8079 8.0491C19.422 6.10929 18.4696 4.32746 17.0711 2.92894C15.6725 1.53041 13.8907 0.578004 11.9509 0.192152C10.0111 -0.193701 8.00043 0.00433286 6.17317 0.761209C4.34591 1.51809 2.78412 2.79981 1.6853 4.4443C0.58649 6.08879 0 8.02219 0 10C0 12.6522 1.05357 15.1957 2.92893 17.0711C4.8043 18.9464 7.34784 20 10 20V20Z" fill="#C0E79B"/>
    <path d="M11.1067 8.35917V7.02583H14.1667V5H5.8409V7.0275H8.8984V8.36083C6.41423 8.47417 4.5459 8.96417 4.5459 9.55C4.5459 10.1358 6.41506 10.625 8.8984 10.74V15H11.1092V10.7392C13.5901 10.625 15.4542 10.1358 15.4542 9.54917C15.4542 8.9625 13.5884 8.47333 11.1067 8.35917ZM11.1067 10.3792C11.0442 10.3792 10.7242 10.4017 10.0109 10.4017C9.44006 10.4017 9.04006 10.3875 8.89756 10.3792C6.70423 10.2817 5.06423 9.90167 5.06423 9.4475C5.06423 8.99333 6.70173 8.61417 8.89756 8.51583V10C9.04256 10.01 9.45173 10.035 10.0209 10.035C10.7026 10.035 11.0442 10.0075 11.1092 10V8.51333C13.3009 8.61 14.9351 8.99 14.9351 9.445C14.9351 9.9 13.2984 10.2792 11.1101 10.3792H11.1067Z" fill="#26A17B"/>
</svg>
